<svg xmlns="http://www.w3.org/2000/svg" xmlns:xlink="http://www.w3.org/1999/xlink" viewBox="0 0 113 34" fill="#fff" fill-rule="evenodd" stroke="#000" stroke-linecap="round" stroke-linejoin="round"><use xlink:href="#A" x=".5" y=".5"/><symbol id="A" overflow="visible"><g stroke="none" fill-rule="nonzero"><use xlink:href="#C" fill="#a0dcf2"/><use xlink:href="#C" fill="#82bde7"/><path d="M6.533 18.887l-.289 1.005s-.075.363.267.428c.357-.007.328-.342.303-.45l-.282-.983z" fill="#a0dcf2"/><path d="M35.593 14.672l.026-.131c-2.933-.586-5.942-.592-7.764-.517.299-1.077.389-2.317.389-3.7 0-1.983-.745-3.569-1.955-4.777.211-.682.494-2.197-.282-4.137 0 0-1.37-.434-4.463 1.637-1.212-.303-2.503-.453-3.795-.453-1.422 0-2.859.181-4.199.549C10.356.964 8.946 1.411 8.946 1.411c-.921 2.304-.351 4.005-.179 4.429a6.41 6.41 0 0 0-1.742 4.485c0 1.38.157 2.617.541 3.692-1.836-.067-4.736-.041-7.566.524l.026.131c2.845-.569 5.762-.589 7.586-.52a6.98 6.98 0 0 0 .284.647c-1.805.058-4.886.288-7.839 1.121l.036.128c2.976-.839 6.084-1.064 7.872-1.118 1.078 2.01 3.204 3.308 6.986 3.713-.537.361-1.084.974-1.307 2.012-.731.349-3.047 1.204-4.436-1.186 0 0-.778-1.422-2.266-1.533 0 0-1.444-.02-.1.9 0 0 .966.455 1.633 2.165 0 0 .87 2.918 5.066 1.982v3.014s-.089 1.066-1.066 1.421c0 0-.577.4.044.622 0 0 2.71.222 2.71-1.999v-3.287s-.107-1.304.533-1.757v5.403s-.044 1.288-.711 1.777c0 0-.444.799.533.577 0 0 1.865-.267 1.954-2.443l.042-5.463h.448l.041 5.465c.089 2.176 1.954 2.443 1.954 2.443.977.222.533-.577.533-.577-.666-.489-.711-1.777-.711-1.777v-5.352c.64.496.533 1.71.533 1.71v3.285c0 2.221 2.709 1.999 2.709 1.999.622-.222.045-.622.045-.622-.977-.357-1.066-1.421-1.066-1.421v-4.309c0-1.68-.708-2.57-1.399-3.04 4.031-.4 5.968-1.702 6.86-3.726 1.767.048 4.946.264 7.987 1.122l.036-.128c-3.024-.853-6.182-1.074-7.966-1.126.085-.205.158-.417.224-.635 1.808-.079 4.831-.076 7.775.512" fill="#292929"/><path d="M24.3 10.229c.869.787 1.377 1.738 1.377 2.761 0 4.781-3.564 4.91-7.96 4.91s-7.96-.662-7.96-4.908c0-1.017.501-1.962 1.359-2.745 1.431-1.306 3.853-.615 6.601-.615 2.737 0 5.15-.699 6.583.599" fill="#f5cdb5"/><path d="M15.071 13.236c0 1.317-.741 2.384-1.656 2.384s-1.657-1.067-1.657-2.384.742-2.384 1.657-2.384 1.656 1.067 1.656 2.384"/><path d="M14.539 13.266c0 .878-.496 1.589-1.104 1.589s-1.104-.711-1.104-1.589.494-1.59 1.104-1.59 1.104.712 1.104 1.59" fill="#b1645a"/><path d="M23.956 13.236c0 1.317-.742 2.384-1.657 2.384s-1.656-1.067-1.656-2.384.742-2.384 1.656-2.384 1.657 1.067 1.657 2.384"/><path d="M23.424 13.266c0 .878-.496 1.589-1.104 1.589s-1.104-.711-1.104-1.589.496-1.59 1.104-1.59 1.104.712 1.104 1.59m-5.269 2.085c0 .229-.185.414-.414.414s-.414-.185-.414-.414.185-.414.414-.414.414.185.414.414m-1.379 1.048c-.016-.045-.007-.095.024-.131s.079-.053.126-.044.085.042.101.087c.106.301.392.503.71.503s.604-.202.711-.503c.025-.069.101-.106.17-.081s.106.101.081.17c-.147.405-.531.674-.962.674s-.815-.27-.961-.674" fill="#b1645a"/><g fill="#c5e6da"><path d="M7.593 18.294c0 .111-.129.2-.289.2s-.289-.089-.289-.2.129-.2.289-.2.289.089.289.2m.8.444c0 .111-.129.2-.289.2s-.289-.089-.289-.2.129-.2.289-.2.289.089.289.2m.489.576c0 .11-.129.2-.289.2s-.289-.089-.289-.2.129-.2.289-.2.289.089.289.2m.444.667c0 .111-.129.2-.289.2s-.289-.089-.289-.2.129-.2.289-.2.289.089.289.2m.489.624c0 .11-.129.2-.289.2s-.289-.089-.289-.2.129-.2.289-.2.289.089.289.2m.667.533c0 .111-.129.2-.289.2s-.289-.089-.289-.2.129-.2.289-.2.289.089.289.2"/><use xlink:href="#D"/><use xlink:href="#D" x="0.929"/><path d="M13.285 21.338c0 .111-.129.2-.289.2s-.289-.089-.289-.2.129-.2.289-.2.289.089.289.2"/></g><path d="M47.318 8.388c1.1 0 2.353-.273 3.785-.818v3.513c-.318.114-.773.24-1.364.375.182.523.273 1.012.273 1.466 0 1.455-.443 2.728-1.33 3.82a5.13 5.13 0 0 1-3.376 1.9c-.9.136-1.364.625-1.364 1.466 0 .296.148.6.443.887.386.432.955.705 1.705.818 3.25.5 4.877 1.853 4.877 4.058 0 3.524-2.103 5.286-6.3 5.286-1.728 0-3.15-.307-4.263-.92-1.4-.773-2.114-2-2.114-3.65 0-1.9 1.057-3.217 3.17-3.922v-.068c-.773-.477-1.16-1.205-1.16-2.182 0-1.273.364-2.07 1.1-2.387v-.068c-.728-.25-1.375-.818-1.944-1.705-.637-.955-.955-1.978-.955-3.07 0-1.637.58-3 1.74-4.092a5.7 5.7 0 0 1 4-1.534 6.15 6.15 0 0 1 3.103.818m-5.115 4.842c0 1.57.716 2.353 2.148 2.353 1.387 0 2.08-.796 2.08-2.387 0-.66-.16-1.228-.477-1.705-.386-.523-.92-.784-1.603-.784-1.432 0-2.148.84-2.148 2.524m5.252 13.095c0-1.16-.955-1.74-2.865-1.74-1.842 0-2.762.602-2.762 1.807 0 1.182 1 1.773 3 1.773 1.75 0 2.626-.614 2.626-1.84M54.952 5.08c-.66 0-1.228-.25-1.705-.75a2.55 2.55 0 0 1-.682-1.773c0-.705.227-1.307.682-1.807.477-.5 1.046-.75 1.705-.75.637 0 1.182.25 1.637.75.477.5.716 1.103.716 1.807a2.48 2.48 0 0 1-.716 1.773c-.455.5-1 .75-1.637.75m-1.944 17.8c.045-.455.068-1.228.068-2.32V9.957l-.068-2.217h3.844c-.045.432-.068 1.148-.068 2.148v10.47l.068 2.524h-3.854m11-15.142h2.967v3.308l-.648-.034-.853-.034h-1.466v6.343c0 1.523.5 2.285 1.5 2.285a3.32 3.32 0 0 0 1.91-.58v3.4c-.84.455-1.853.682-3.035.682-1.66 0-2.808-.6-3.444-1.773-.477-.887-.716-2.285-.716-4.194v-6.104h.034v-.068l-.512-.034c-.389.008-.776.042-1.16.102V7.731h1.67v-1.33c0-.637-.034-1.148-.102-1.535h3.956c-.068.432-.102.92-.102 1.466V7.73m12.1-.092c-.978 0-2 .34-3.07 1.023V2.693l.068-2.558h-3.888c.068.364.102 1.216.102 2.558v18.04l-.102 2.148h3.956c0-.068-.023-.34-.068-.82l-.068-1.33v-8.386c.796-.75 1.57-1.125 2.32-1.125.864 0 1.523.432 1.978 1.296.34.682.512 1.535.512 2.558l-.034 4.604c0 .773-.057 1.84-.17 3.206h4.126c-.1-.568-.136-1.614-.136-3.137v-4.672c0-1.978-.443-3.66-1.33-5.047-1-1.6-2.4-2.387-4.195-2.387m13.104 15.377c-1.796 0-3.126-.796-4-2.387-.682-1.296-1.023-3-1.023-5.08v-4.672l-.136-3.137h4.092c-.068.5-.114 1.57-.136 3.206l-.034 4.604c0 1.296.148 2.228.443 2.796.34.705.966 1.057 1.876 1.057.637 0 1.353-.375 2.148-1.125v-8.4l-.068-1.33-.068-.818h3.956c-.045.387-.068 1.103-.068 2.148v10.445l.068 2.558h-3.7v-1.238c-1.046.9-2.16 1.364-3.342 1.364m16.77-.034a4 4 0 0 1-3.069-1.33v1.228h-3.615c.068-.387.102-1.103.102-2.148V2.695L99.296.137h3.888c-.046.4-.068 1.262-.068 2.558v5.934c1.046-.66 2.07-1 3.07-1 1.796 0 3.206.796 4.23 2.387.864 1.387 1.296 3.07 1.296 5.047 0 2.023-.455 3.785-1.364 5.286-1.1 1.75-2.546 2.626-4.365 2.626m-.512-11.765c-.75 0-1.535.375-2.353 1.125v5.91c.728.705 1.444 1.057 2.148 1.057.887 0 1.557-.5 2.012-1.466.364-.773.546-1.694.546-2.762 0-2.57-.784-3.853-2.353-3.853" fill="#000"/></g></symbol><defs ><path id="C" d="M27.947 29.174c0 1.932-4.476 3.498-9.996 3.498s-9.996-1.566-9.996-3.498 4.475-3.499 9.996-3.499 9.996 1.569 9.996 3.499"/><path id="D" d="M11.414 21.493c0 .11-.129.2-.289.2s-.289-.089-.289-.2.129-.2.289-.2.289.089.289.2"/></defs></svg>